<svg width="1650" height="1105" viewBox="0 0 1650 1105" fill="none" xmlns="http://www.w3.org/2000/svg">
<path d="M136.238 884.325L153.854 883.898L154.991 890.149C149.687 890.718 146.419 891.286 145.188 891.854C144.051 892.328 143.483 893.606 143.483 895.69V968.997C143.483 972.88 144.288 975.437 145.898 976.668C147.508 977.9 149.876 978.515 153.002 978.515H166.782C173.98 978.515 179.616 976.858 183.688 973.543C187.761 970.133 190.981 964.924 193.349 957.915L198.179 958.768C198.179 960.473 196.948 965.303 194.485 973.259C192.023 981.12 190.271 985.05 189.229 985.05L153.002 985.334L135.669 985.05L119.9 985.476L118.763 979.225C124.162 978.657 127.477 978.089 128.708 977.521C129.939 976.952 130.555 975.674 130.555 973.685V895.69C130.555 893.701 129.892 892.375 128.566 891.712C127.24 891.049 124.162 890.528 119.332 890.149L118.053 883.898L136.238 884.325ZM237.426 883.756L255.327 884.182C255.421 884.182 261.72 884.04 274.222 883.756L275.358 890.007C269.391 890.575 265.745 891.144 264.419 891.712C263.093 892.186 262.43 893.464 262.43 895.548V973.685C262.43 975.674 263.093 977 264.419 977.663C265.745 978.326 268.681 978.847 273.227 979.225L274.506 985.476L256.605 985.05C256.511 985.05 250.212 985.192 237.71 985.476L236.574 979.225C242.541 978.657 246.187 978.136 247.513 977.663C248.839 977.094 249.502 975.769 249.502 973.685V895.548C249.502 893.559 248.839 892.233 247.513 891.57C246.187 890.907 243.251 890.386 238.705 890.007L237.426 883.756ZM402.301 884.04L418.354 883.614L419.491 889.865C414.092 890.433 410.778 891.002 409.546 891.57C408.315 892.138 407.699 893.417 407.699 895.406L407.842 985.476C407.179 985.382 405.947 985.334 404.148 985.334C402.348 985.334 401.117 985.382 400.454 985.476L335.813 902.083V973.827C335.813 975.816 336.524 977.142 337.944 977.805C339.365 978.468 342.68 978.989 347.889 979.368L349.168 985.619L332.688 985.192L316.634 985.619L315.498 979.368C320.896 978.799 324.211 978.231 325.442 977.663C326.674 977.094 327.289 975.816 327.289 973.827V895.406C327.289 893.512 326.579 892.233 325.158 891.57C323.832 890.812 320.896 890.244 316.35 889.865L315.072 883.614C315.072 883.614 320.896 883.756 332.546 884.04C335.103 884.04 337.755 883.898 340.502 883.614C340.502 885.13 350.304 898.152 369.91 922.683C385.537 941.814 395.292 954.458 399.175 960.615V895.406C399.175 893.417 398.418 892.091 396.902 891.428C395.482 890.765 392.167 890.244 386.958 889.865L385.679 883.614C385.679 883.614 391.22 883.756 402.301 884.04ZM475.454 884.182L492.503 883.756L493.639 890.007C488.335 890.575 485.115 891.144 483.978 891.712C482.842 892.186 482.274 893.464 482.274 895.548V929.928H536.259V895.548C536.259 893.748 535.596 892.47 534.27 891.712C533.039 890.954 530.529 890.386 526.741 890.007L525.462 883.756L542.51 884.182L559.984 883.756L561.121 890.007C555.722 890.575 552.36 891.144 551.034 891.712C549.803 892.186 549.187 893.464 549.187 895.548V973.685C549.187 975.579 549.803 976.905 551.034 977.663C552.36 978.326 554.965 978.847 558.848 979.225L560.127 985.476L543.363 985.05L525.604 985.476L524.468 979.225C530.719 978.468 534.223 977.805 534.981 977.237C535.833 976.574 536.259 975.532 536.259 974.111V937.742H482.274V973.685C482.274 975.579 482.889 976.905 484.121 977.663C485.352 978.326 487.909 978.847 491.792 979.225L493.071 985.476L476.449 985.05L458.975 985.476L457.838 979.225C463.142 978.657 466.362 978.136 467.499 977.663C468.73 977.094 469.346 975.769 469.346 973.685V895.548C469.346 893.748 468.73 892.47 467.499 891.712C466.362 890.954 463.9 890.386 460.111 890.007L458.833 883.756L475.454 884.182ZM612.139 984.482L597.364 985.05L595.943 978.515H596.795C601.152 978.042 604.467 976.858 606.74 974.963C609.108 972.975 611.097 969.754 612.707 965.303L642.825 884.182H649.644L683.172 967.576C685.161 972.217 686.913 975.248 688.429 976.668C690.039 978.089 692.596 978.799 696.1 978.799L697.663 985.05C690.276 984.577 683.599 984.34 677.632 984.34C671.76 984.34 666.03 984.577 660.442 985.05L659.163 978.941H659.731C667.213 978.847 670.955 977.521 670.955 974.963C670.955 973.732 667.545 965.303 660.726 949.675H625.351L618.39 968.997C618.105 970.133 617.963 971.128 617.963 971.98C617.963 973.969 618.863 975.484 620.663 976.526C622.462 977.568 625.54 978.231 629.897 978.515L631.602 985.05L612.139 984.482ZM641.689 904.782L628.05 942.288H657.458L641.689 904.782ZM732.411 883.756L749.459 884.182L771.195 883.614C781.613 883.614 790.137 885.84 796.767 890.291C803.397 894.743 806.712 901.562 806.712 910.749C806.712 924.293 799.845 933.432 786.112 938.168C788.101 940.82 791.227 945.082 795.489 950.954C804.676 964.024 810.879 972.075 814.099 975.106C817.414 978.136 821.203 979.841 825.465 980.22L827.312 985.192L816.799 984.766L802.592 985.05C800.793 982.588 796.01 975.484 788.243 963.74C780.572 951.996 775.41 944.514 772.758 941.294C772.379 940.915 771.858 940.725 771.195 940.725H757.557V973.685C757.557 975.579 758.409 976.905 760.114 977.663C761.819 978.326 765.086 978.847 769.917 979.225L771.195 985.476C758.977 985.192 752.726 985.05 752.442 985.05L734.258 985.476L733.121 979.225C738.425 978.657 741.645 978.136 742.782 977.663C744.013 977.094 744.629 975.769 744.629 973.685V895.548C744.629 893.654 743.918 892.375 742.498 891.712C741.172 890.954 738.236 890.386 733.689 890.007L732.411 883.756ZM757.557 892.707V933.906C759.735 934.19 762.861 934.332 766.933 934.332C784.455 934.332 793.216 926.519 793.216 910.891C793.216 904.072 790.99 898.957 786.538 895.548C782.087 892.044 776.31 890.291 769.206 890.291C763.05 890.291 759.546 890.575 758.693 891.144C757.936 891.617 757.557 892.138 757.557 892.707ZM912.871 890.433L896.817 890.576C890.187 890.86 886.872 891.617 886.872 892.849V928.365C886.872 929.313 887.346 929.786 888.293 929.786H910.882C913.155 929.786 914.67 928.744 915.428 926.661C916.28 924.482 916.706 920.504 916.706 914.727L921.395 914.017L921.111 932.912L921.395 950.386L916.706 951.096C916.706 945.508 916.375 941.909 915.712 940.299C915.049 938.689 913.439 937.884 910.882 937.884H888.293C887.346 937.884 886.872 938.31 886.872 939.163V968.997C886.872 973.164 887.725 975.816 889.43 976.952C891.134 977.994 894.875 978.515 900.653 978.515H914.433C921.631 978.515 927.267 976.858 931.339 973.543C935.412 970.133 938.632 964.924 941 957.915L945.83 958.768C945.83 960.473 944.599 965.303 942.137 973.259C939.674 981.12 937.922 985.05 936.88 985.05L900.653 985.334C898.19 985.334 890.992 985.24 879.059 985.05L863.289 985.476L862.153 979.225C867.456 978.657 870.677 978.136 871.813 977.663C873.044 977.094 873.755 975.769 873.944 973.685V895.548C873.944 893.559 873.281 892.233 871.955 891.57C870.629 890.907 867.551 890.386 862.721 890.007L861.442 883.756L879.201 884.182H902.074L937.164 884.325C937.827 885.745 938.159 888.918 938.159 893.843C938.159 898.768 937.922 903.835 937.448 909.044L932.902 908.618C931.766 901.894 929.682 897.205 926.651 894.553C923.62 891.807 919.027 890.433 912.871 890.433ZM1017.78 979.652C1024.31 979.652 1029.33 977.994 1032.83 974.679C1036.43 971.364 1038.23 967.339 1038.23 962.604C1038.23 957.868 1036.48 953.843 1032.98 950.528C1029.57 947.118 1025.35 944.182 1020.33 941.72C1015.41 939.257 1010.43 936.7 1005.42 934.048C1000.49 931.396 996.276 927.892 992.771 923.535C989.362 919.084 987.657 913.922 987.657 908.05C987.657 899.62 990.688 893.275 996.749 889.013C1002.81 884.656 1010.01 882.478 1018.34 882.478C1029.05 882.478 1038.23 884.277 1045.9 887.876C1046.57 889.297 1046.9 893.038 1046.9 899.1C1046.9 905.066 1046.71 909.565 1046.33 912.596L1041.93 912.312C1041.55 905.682 1039.23 900.189 1034.97 895.832C1030.8 891.381 1025.12 889.155 1017.92 889.155C1012.8 889.155 1008.59 890.481 1005.27 893.133C1002.05 895.69 1000.44 899.289 1000.44 903.93C1000.44 909.423 1003.81 914.206 1010.53 918.279C1013.47 920.078 1016.73 921.878 1020.33 923.677C1023.93 925.477 1027.53 927.418 1031.13 929.502C1034.73 931.491 1038 933.717 1040.93 936.179C1047.66 941.672 1051.02 948.681 1051.02 957.205C1051.02 965.634 1048.08 972.69 1042.21 978.373C1036.34 983.961 1028.57 986.755 1018.91 986.755C1009.25 986.755 999.212 984.813 988.793 980.93C988.32 979.51 987.657 976.005 986.804 970.417C985.952 964.735 985.336 959.952 984.958 956.069L991.493 955.074C995.281 971.459 1004.04 979.652 1017.78 979.652ZM1167.52 884.325L1185.14 883.898L1186.28 890.149C1180.97 890.718 1177.71 891.286 1176.47 891.854C1175.34 892.328 1174.77 893.606 1174.77 895.69V968.997C1174.77 972.88 1175.57 975.437 1177.18 976.668C1178.79 977.9 1181.16 978.515 1184.29 978.515H1198.07C1205.27 978.515 1210.9 976.858 1214.97 973.543C1219.05 970.133 1222.27 964.924 1224.64 957.915L1229.47 958.768C1229.47 960.473 1228.23 965.303 1225.77 973.259C1223.31 981.12 1221.56 985.05 1220.52 985.05L1184.29 985.334L1166.96 985.05L1151.19 985.476L1150.05 979.225C1155.45 978.657 1158.76 978.089 1159.99 977.521C1161.23 976.952 1161.84 975.674 1161.84 973.685V895.69C1161.84 893.701 1161.18 892.375 1159.85 891.712C1158.53 891.049 1155.45 890.528 1150.62 890.149L1149.34 883.898L1167.52 884.325ZM1273.4 984.482L1258.63 985.05L1257.21 978.515H1258.06C1262.41 978.042 1265.73 976.858 1268 974.963C1270.37 972.975 1272.36 969.754 1273.97 965.303L1304.09 884.182H1310.91L1344.43 967.576C1346.42 972.217 1348.18 975.248 1349.69 976.668C1351.3 978.089 1353.86 978.799 1357.36 978.799L1358.93 985.05C1351.54 984.577 1344.86 984.34 1338.89 984.34C1333.02 984.34 1327.29 984.577 1321.7 985.05L1320.43 978.941H1320.99C1328.48 978.847 1332.22 977.521 1332.22 974.963C1332.22 973.732 1328.81 965.303 1321.99 949.675H1286.61L1279.65 968.997C1279.37 970.133 1279.23 971.128 1279.23 971.98C1279.23 973.969 1280.13 975.484 1281.92 976.526C1283.72 977.568 1286.8 978.231 1291.16 978.515L1292.86 985.05L1273.4 984.482ZM1302.95 904.782L1289.31 942.288H1318.72L1302.95 904.782ZM1516.13 884.751L1530.91 884.182L1532.33 890.718H1531.48C1527.12 891.191 1523.76 892.422 1521.39 894.411C1519.12 896.306 1517.18 899.478 1515.57 903.93L1485.45 985.05H1478.63L1458.17 929.502L1437.43 985.05H1430.61L1399.92 901.657C1397.75 897.016 1395.9 893.985 1394.38 892.564C1392.87 891.144 1390.41 890.433 1387 890.433L1385.43 884.182C1392.82 884.656 1399.45 884.893 1405.32 884.893C1411.29 884.893 1417.07 884.656 1422.65 884.182L1423.93 890.291H1423.36C1415.88 890.386 1412.14 891.712 1412.14 894.269C1412.14 895.216 1412.47 896.4 1413.14 897.821L1438.57 964.45L1454.76 920.125L1447.94 901.657C1445.76 897.016 1443.92 893.985 1442.4 892.564C1440.89 891.144 1438.42 890.433 1435.01 890.433L1433.45 884.182C1440.84 884.656 1447.47 884.893 1453.34 884.893C1459.31 884.893 1465.09 884.656 1470.67 884.182L1471.95 890.291H1471.38C1463.9 890.386 1460.16 891.712 1460.16 894.269C1460.16 895.216 1460.49 896.4 1461.15 897.821L1486.58 964.45L1509.88 900.236C1510.17 899.1 1510.31 898.105 1510.31 897.253C1510.31 895.264 1509.41 893.748 1507.61 892.707C1505.81 891.665 1502.73 891.002 1498.38 890.718L1496.67 884.182L1516.13 884.751Z" fill="black"/>
<path d="M931.604 232.519C946.088 230.781 962.057 229.018 966.998 228.602C971.939 228.186 989.417 227.881 1005.74 227.761C1026.86 227.722 1037.75 228.357 1043.72 230.067C1048.2 231.473 1055.35 234.812 1059.53 237.873C1064.2 241.255 1067.74 245.482 1069.46 249.74C1071.71 255.639 1071.73 256.793 1069.17 261.291C1067.74 264.12 1064.17 267.976 1061.24 270.006C1058.48 272.199 1052.92 275.1 1048.98 276.488C1045.21 277.873 1036.02 280.178 1028.62 281.627C1021.06 283.078 1001.64 285.726 985.342 287.33C969.04 288.934 944.177 291.348 930.178 292.582C916.18 293.816 895.768 296.151 884.909 297.66C874.049 299.169 858.101 302.087 849.561 304.215C841.018 306.179 829.198 309.354 823.294 311.271C817.389 313.189 807.883 316.653 801.988 319.065C796.092 321.477 785.134 326.782 777.45 330.71C769.766 334.637 756.864 341.955 748.868 346.878C740.875 351.966 726.523 361.288 717.068 367.72C707.617 374.318 687.919 389.177 673.109 400.651C658.303 412.29 642.664 423.449 638.084 425.673C633.67 427.895 627.27 429.821 624.138 429.875C620.843 430.098 617.525 429.001 616.345 427.537C615.167 426.238 614.447 422.787 614.887 419.646C615.168 416.837 618.507 409.686 622.034 403.852C625.564 398.182 637.018 383.468 647.525 371.243C658.036 359.184 671.471 344.6 677.147 339.058C682.824 333.516 692.732 324.766 698.909 319.545C705.25 314.321 715.83 306.22 722.513 301.65C729.195 297.08 739.471 290.468 745.353 287.231C751.231 283.83 762.675 278.022 770.692 274.253C778.708 270.485 792.793 264.796 801.805 261.34C810.816 257.884 825.246 253.013 833.78 250.555C842.314 248.097 861.864 243.632 877.317 240.724C892.771 237.815 917.117 234.091 931.604 232.519Z" fill="black"/>
<path d="M922.106 83.4049C929.812 81.9807 943.445 80.1845 952.481 79.0439C961.523 78.0681 984.091 76.95 1002.73 76.6292C1022.85 76.2567 1043.17 77.0321 1053.11 78.1701C1062.23 79.3369 1076.02 81.9907 1083.84 84.0275C1091.67 86.0644 1101.36 89.3565 1105.55 91.3552C1109.75 93.3539 1115.48 96.949 1118.2 99.3291C1120.93 101.874 1125.72 106.657 1128.81 110.18C1131.74 113.708 1135.92 119.832 1137.87 123.89C1139.83 127.947 1141.72 134.646 1141.86 138.932C1142.02 143.382 1141.24 149.349 1140.18 152.192C1138.97 155.204 1135.7 160.764 1132.69 164.334C1129.68 167.905 1123.28 173.904 1118.46 177.373C1113.63 181.006 1103.46 187.302 1095.84 191.363C1088.23 195.589 1077.69 200.743 1072.32 203.076C1066.95 205.243 1055.84 208.437 1047.81 210.037C1039.79 211.802 1020.57 214.289 1005.11 215.819C989.654 217.349 962.352 219.952 944.257 221.574C926.157 223.031 900.68 225.901 887.535 227.515C874.396 229.294 854.875 232.616 844.06 234.809C833.246 237.002 816.721 241.044 807.242 243.685C797.763 246.327 782.114 251.824 772.187 255.801C762.26 259.778 742.622 269.209 728.366 276.803C714.11 284.396 694.076 296.647 683.934 303.932C673.793 311.216 660.788 321.571 655.027 326.723C649.273 332.039 630.611 350.513 613.563 367.94C596.509 385.202 579.574 401.139 576.011 403.079C571.801 405.371 568.033 406.163 564.879 405.613C562.225 405.211 559.001 402.683 556.908 399.456C554.997 396.717 552.818 391.018 552.18 386.915C551.377 382.817 551.396 373.906 551.984 367.12C552.737 360.328 555.135 348.693 557.354 341.355C559.573 334.017 564.268 321.972 567.641 314.593C570.849 307.22 577.51 294.777 582.349 286.852C587.023 278.933 593.281 269.144 596.269 264.914C599.256 260.684 607.152 250.508 613.798 242.355C620.438 234.037 632.538 221.404 640.366 214.035C648.195 206.666 660.54 196.334 667.619 191.136C674.693 185.773 692.255 173.609 706.766 163.861C721.117 154.284 739.197 142.762 746.97 138.53C754.907 134.293 767.891 128.064 775.852 124.486C783.818 121.072 799.939 114.899 811.679 110.858C823.419 106.818 843.178 100.848 855.771 97.6025C868.369 94.5223 885.389 90.4627 893.419 88.8621C901.449 87.2616 914.4 84.8291 922.106 83.4049Z" fill="black"/>
<path d="M946.571 300.86C950.034 299.376 957.967 298.239 965.421 297.411C975.099 296.336 1014.89 293.908 1014.89 293.908V771.54H1004.04H979.776C966.913 771.54 939.034 771.375 939.034 771.375V304.165L946.571 300.86Z" fill="black"/>
<path d="M840.91 321.159C847.342 319.015 858.391 316.211 865.647 314.892C872.903 313.573 883.788 312.304 883.788 312.304V771.375L875.122 771.54H853.94H809.576V338.32L819.471 330.724C824.913 327.755 834.643 323.467 840.91 321.159Z" fill="black"/>
<path d="M720.522 376.9C726.789 372.612 737.344 366.345 743.61 363.047C749.877 359.584 755.281 356.285 755.611 356.285C755.776 356.285 755.611 562.831 755.611 562.831V771.54H733.089H699.227H679.566C676.762 770.716 679.566 414.5 679.566 414.5C679.566 414.5 685.231 406.419 693.641 398.668C702.052 390.917 714.256 381.023 720.522 376.9Z" fill="black"/>
</svg>
