<svg width="1650" height="1106" viewBox="0 0 1650 1106" fill="none" xmlns="http://www.w3.org/2000/svg">
<path d="M136.238 884.912L153.854 884.486L154.991 890.737C149.687 891.305 146.419 891.874 145.188 892.442C144.051 892.915 143.483 894.194 143.483 896.278V969.584C143.483 973.468 144.288 976.025 145.898 977.256C147.508 978.487 149.876 979.103 153.002 979.103H166.782C173.98 979.103 179.616 977.446 183.688 974.131C187.761 970.721 190.981 965.512 193.349 958.503L198.179 959.356C198.179 961.06 196.948 965.891 194.485 973.846C192.023 981.708 190.271 985.638 189.229 985.638L153.002 985.922L135.669 985.638L119.9 986.064L118.763 979.813C124.162 979.245 127.477 978.677 128.708 978.108C129.939 977.54 130.555 976.262 130.555 974.273V896.278C130.555 894.289 129.892 892.963 128.566 892.3C127.24 891.637 124.162 891.116 119.332 890.737L118.053 884.486L136.238 884.912ZM237.426 884.344L255.327 884.77C255.421 884.77 261.72 884.628 274.222 884.344L275.358 890.595C269.391 891.163 265.745 891.732 264.419 892.3C263.093 892.773 262.43 894.052 262.43 896.136V974.273C262.43 976.262 263.093 977.588 264.419 978.251C265.745 978.914 268.681 979.434 273.227 979.813L274.506 986.064L256.605 985.638C256.511 985.638 250.212 985.78 237.71 986.064L236.574 979.813C242.541 979.245 246.187 978.724 247.513 978.251C248.839 977.682 249.502 976.356 249.502 974.273V896.136C249.502 894.147 248.839 892.821 247.513 892.158C246.187 891.495 243.251 890.974 238.705 890.595L237.426 884.344ZM402.301 884.628L418.354 884.202L419.491 890.453C414.092 891.021 410.778 891.59 409.546 892.158C408.315 892.726 407.699 894.005 407.699 895.994L407.842 986.064C407.179 985.97 405.947 985.922 404.148 985.922C402.348 985.922 401.117 985.97 400.454 986.064L335.813 902.671V974.415C335.813 976.404 336.524 977.73 337.944 978.393C339.365 979.056 342.68 979.577 347.889 979.955L349.168 986.206L332.688 985.78L316.634 986.206L315.498 979.955C320.896 979.387 324.211 978.819 325.442 978.251C326.674 977.682 327.289 976.404 327.289 974.415V895.994C327.289 894.099 326.579 892.821 325.158 892.158C323.832 891.4 320.896 890.832 316.35 890.453L315.072 884.202C315.072 884.202 320.896 884.344 332.546 884.628C335.103 884.628 337.755 884.486 340.502 884.202C340.502 885.717 350.304 898.74 369.91 923.271C385.537 942.402 395.292 955.046 399.175 961.202V895.994C399.175 894.005 398.418 892.679 396.902 892.016C395.482 891.353 392.167 890.832 386.958 890.453L385.679 884.202C385.679 884.202 391.22 884.344 402.301 884.628ZM475.454 884.77L492.503 884.344L493.639 890.595C488.335 891.163 485.115 891.732 483.978 892.3C482.842 892.773 482.274 894.052 482.274 896.136V930.516H536.259V896.136C536.259 894.336 535.596 893.058 534.27 892.3C533.039 891.542 530.529 890.974 526.741 890.595L525.462 884.344L542.51 884.77L559.984 884.344L561.121 890.595C555.722 891.163 552.36 891.732 551.034 892.3C549.803 892.773 549.187 894.052 549.187 896.136V974.273C549.187 976.167 549.803 977.493 551.034 978.251C552.36 978.914 554.965 979.434 558.848 979.813L560.127 986.064L543.363 985.638L525.604 986.064L524.468 979.813C530.719 979.056 534.223 978.393 534.981 977.824C535.833 977.161 536.259 976.12 536.259 974.699V938.33H482.274V974.273C482.274 976.167 482.889 977.493 484.121 978.251C485.352 978.914 487.909 979.434 491.792 979.813L493.071 986.064L476.449 985.638L458.975 986.064L457.838 979.813C463.142 979.245 466.362 978.724 467.499 978.251C468.73 977.682 469.346 976.356 469.346 974.273V896.136C469.346 894.336 468.73 893.058 467.499 892.3C466.362 891.542 463.9 890.974 460.111 890.595L458.833 884.344L475.454 884.77ZM612.139 985.07L597.364 985.638L595.943 979.103H596.795C601.152 978.629 604.467 977.446 606.74 975.551C609.108 973.562 611.097 970.342 612.707 965.891L642.825 884.77H649.644L683.172 968.164C685.161 972.805 686.913 975.835 688.429 977.256C690.039 978.677 692.596 979.387 696.1 979.387L697.663 985.638C690.276 985.165 683.599 984.928 677.632 984.928C671.76 984.928 666.03 985.165 660.442 985.638L659.163 979.529H659.731C667.213 979.434 670.955 978.108 670.955 975.551C670.955 974.32 667.545 965.891 660.726 950.263H625.351L618.39 969.584C618.105 970.721 617.963 971.715 617.963 972.568C617.963 974.557 618.863 976.072 620.663 977.114C622.462 978.156 625.54 978.819 629.897 979.103L631.602 985.638L612.139 985.07ZM641.689 905.37L628.05 942.876H657.458L641.689 905.37ZM732.411 884.344L749.459 884.77L771.195 884.202C781.613 884.202 790.137 886.428 796.767 890.879C803.397 895.331 806.712 902.15 806.712 911.337C806.712 924.881 799.845 934.02 786.112 938.756C788.101 941.408 791.227 945.67 795.489 951.542C804.676 964.612 810.879 972.663 814.099 975.693C817.414 978.724 821.203 980.429 825.465 980.808L827.312 985.78L816.799 985.354L802.592 985.638C800.793 983.176 796.01 976.072 788.243 964.328C780.572 952.584 775.41 945.102 772.758 941.881C772.379 941.502 771.858 941.313 771.195 941.313H757.557V974.273C757.557 976.167 758.409 977.493 760.114 978.251C761.819 978.914 765.086 979.434 769.917 979.813L771.195 986.064C758.977 985.78 752.726 985.638 752.442 985.638L734.258 986.064L733.121 979.813C738.425 979.245 741.645 978.724 742.782 978.251C744.013 977.682 744.629 976.356 744.629 974.273V896.136C744.629 894.241 743.918 892.963 742.498 892.3C741.172 891.542 738.236 890.974 733.689 890.595L732.411 884.344ZM757.557 893.294V934.494C759.735 934.778 762.861 934.92 766.933 934.92C784.455 934.92 793.216 927.106 793.216 911.479C793.216 904.66 790.99 899.545 786.538 896.136C782.087 892.631 776.31 890.879 769.206 890.879C763.05 890.879 759.546 891.163 758.693 891.732C757.936 892.205 757.557 892.726 757.557 893.294ZM912.871 891.021L896.817 891.163C890.187 891.447 886.872 892.205 886.872 893.436V928.953C886.872 929.9 887.346 930.374 888.293 930.374H910.882C913.155 930.374 914.67 929.332 915.428 927.248C916.28 925.07 916.706 921.092 916.706 915.315L921.395 914.604L921.111 933.499L921.395 950.974L916.706 951.684C916.706 946.096 916.375 942.497 915.712 940.887C915.049 939.277 913.439 938.472 910.882 938.472H888.293C887.346 938.472 886.872 938.898 886.872 939.75V969.584C886.872 973.752 887.725 976.404 889.43 977.54C891.134 978.582 894.875 979.103 900.653 979.103H914.433C921.631 979.103 927.267 977.446 931.339 974.131C935.412 970.721 938.632 965.512 941 958.503L945.83 959.356C945.83 961.06 944.599 965.891 942.137 973.846C939.674 981.708 937.922 985.638 936.88 985.638L900.653 985.922C898.19 985.922 890.992 985.827 879.059 985.638L863.289 986.064L862.153 979.813C867.456 979.245 870.677 978.724 871.813 978.251C873.044 977.682 873.755 976.356 873.944 974.273V896.136C873.944 894.147 873.281 892.821 871.955 892.158C870.629 891.495 867.551 890.974 862.721 890.595L861.442 884.344L879.201 884.77H902.074L937.164 884.912C937.827 886.333 938.159 889.506 938.159 894.431C938.159 899.356 937.922 904.423 937.448 909.632L932.902 909.206C931.766 902.481 929.682 897.793 926.651 895.141C923.62 892.395 919.027 891.021 912.871 891.021ZM1017.78 980.24C1024.31 980.24 1029.33 978.582 1032.83 975.267C1036.43 971.952 1038.23 967.927 1038.23 963.191C1038.23 958.456 1036.48 954.431 1032.98 951.116C1029.57 947.706 1025.35 944.77 1020.33 942.308C1015.41 939.845 1010.43 937.288 1005.42 934.636C1000.49 931.984 996.276 928.48 992.771 924.123C989.362 919.671 987.657 914.51 987.657 908.638C987.657 900.208 990.688 893.863 996.749 889.601C1002.81 885.244 1010.01 883.065 1018.34 883.065C1029.05 883.065 1038.23 884.865 1045.9 888.464C1046.57 889.885 1046.9 893.626 1046.9 899.687C1046.9 905.654 1046.71 910.153 1046.33 913.184L1041.93 912.9C1041.55 906.27 1039.23 900.777 1034.97 896.42C1030.8 891.968 1025.12 889.743 1017.92 889.743C1012.8 889.743 1008.59 891.069 1005.27 893.721C1002.05 896.278 1000.44 899.877 1000.44 904.518C1000.44 910.011 1003.81 914.794 1010.53 918.866C1013.47 920.666 1016.73 922.465 1020.33 924.265C1023.93 926.065 1027.53 928.006 1031.13 930.09C1034.73 932.079 1038 934.304 1040.93 936.767C1047.66 942.26 1051.02 949.269 1051.02 957.793C1051.02 966.222 1048.08 973.278 1042.21 978.961C1036.34 984.549 1028.57 987.343 1018.91 987.343C1009.25 987.343 999.212 985.401 988.793 981.518C988.32 980.097 987.657 976.593 986.804 971.005C985.952 965.322 985.336 960.54 984.958 956.656L991.493 955.662C995.281 972.047 1004.04 980.24 1017.78 980.24ZM1167.52 884.912L1185.14 884.486L1186.28 890.737C1180.97 891.305 1177.71 891.874 1176.47 892.442C1175.34 892.915 1174.77 894.194 1174.77 896.278V969.584C1174.77 973.468 1175.57 976.025 1177.18 977.256C1178.79 978.487 1181.16 979.103 1184.29 979.103H1198.07C1205.27 979.103 1210.9 977.446 1214.97 974.131C1219.05 970.721 1222.27 965.512 1224.64 958.503L1229.47 959.356C1229.47 961.06 1228.23 965.891 1225.77 973.846C1223.31 981.708 1221.56 985.638 1220.52 985.638L1184.29 985.922L1166.96 985.638L1151.19 986.064L1150.05 979.813C1155.45 979.245 1158.76 978.677 1159.99 978.108C1161.23 977.54 1161.84 976.262 1161.84 974.273V896.278C1161.84 894.289 1161.18 892.963 1159.85 892.3C1158.53 891.637 1155.45 891.116 1150.62 890.737L1149.34 884.486L1167.52 884.912ZM1273.4 985.07L1258.63 985.638L1257.21 979.103H1258.06C1262.41 978.629 1265.73 977.446 1268 975.551C1270.37 973.562 1272.36 970.342 1273.97 965.891L1304.09 884.77H1310.91L1344.43 968.164C1346.42 972.805 1348.18 975.835 1349.69 977.256C1351.3 978.677 1353.86 979.387 1357.36 979.387L1358.93 985.638C1351.54 985.165 1344.86 984.928 1338.89 984.928C1333.02 984.928 1327.29 985.165 1321.7 985.638L1320.43 979.529H1320.99C1328.48 979.434 1332.22 978.108 1332.22 975.551C1332.22 974.32 1328.81 965.891 1321.99 950.263H1286.61L1279.65 969.584C1279.37 970.721 1279.23 971.715 1279.23 972.568C1279.23 974.557 1280.13 976.072 1281.92 977.114C1283.72 978.156 1286.8 978.819 1291.16 979.103L1292.86 985.638L1273.4 985.07ZM1302.95 905.37L1289.31 942.876H1318.72L1302.95 905.37ZM1516.13 885.339L1530.91 884.77L1532.33 891.305H1531.48C1527.12 891.779 1523.76 893.01 1521.39 894.999C1519.12 896.893 1517.18 900.066 1515.57 904.518L1485.45 985.638H1478.63L1458.17 930.09L1437.43 985.638H1430.61L1399.92 902.245C1397.75 897.604 1395.9 894.573 1394.38 893.152C1392.87 891.732 1390.41 891.021 1387 891.021L1385.43 884.77C1392.82 885.244 1399.45 885.481 1405.32 885.481C1411.29 885.481 1417.07 885.244 1422.65 884.77L1423.93 890.879H1423.36C1415.88 890.974 1412.14 892.3 1412.14 894.857C1412.14 895.804 1412.47 896.988 1413.14 898.409L1438.57 965.038L1454.76 920.713L1447.94 902.245C1445.76 897.604 1443.92 894.573 1442.4 893.152C1440.89 891.732 1438.42 891.021 1435.01 891.021L1433.45 884.77C1440.84 885.244 1447.47 885.481 1453.34 885.481C1459.31 885.481 1465.09 885.244 1470.67 884.77L1471.95 890.879H1471.38C1463.9 890.974 1460.16 892.3 1460.16 894.857C1460.16 895.804 1460.49 896.988 1461.15 898.409L1486.58 965.038L1509.88 900.824C1510.17 899.687 1510.31 898.693 1510.31 897.84C1510.31 895.852 1509.41 894.336 1507.61 893.294C1505.81 892.253 1502.73 891.59 1498.38 891.305L1496.67 884.77L1516.13 885.339Z" fill="white"/>
<path d="M931.604 233.107C946.088 231.369 962.057 229.606 966.998 229.19C971.939 228.774 989.417 228.469 1005.74 228.349C1026.86 228.31 1037.75 228.945 1043.72 230.655C1048.2 232.061 1055.35 235.4 1059.53 238.461C1064.2 241.843 1067.74 246.07 1069.46 250.328C1071.71 256.227 1071.73 257.381 1069.17 261.879C1067.74 264.708 1064.17 268.564 1061.24 270.594C1058.48 272.787 1052.92 275.688 1048.98 277.076C1045.21 278.461 1036.02 280.766 1028.62 282.215C1021.06 283.666 1001.64 286.314 985.342 287.918C969.04 289.522 944.177 291.936 930.178 293.17C916.18 294.404 895.768 296.739 884.909 298.248C874.049 299.757 858.101 302.675 849.561 304.803C841.018 306.766 829.198 309.942 823.294 311.859C817.389 313.776 807.883 317.241 801.988 319.653C796.092 322.065 785.134 327.37 777.45 331.297C769.766 335.225 756.864 342.543 748.868 347.466C740.875 352.553 726.523 361.876 717.068 368.308C707.617 374.906 687.919 389.764 673.109 401.239C658.303 412.878 642.664 424.037 638.084 426.261C633.67 428.483 627.27 430.409 624.138 430.463C620.843 430.686 617.525 429.589 616.345 428.125C615.167 426.826 614.447 423.375 614.887 420.234C615.168 417.425 618.507 410.274 622.034 404.44C625.564 398.77 637.018 384.055 647.525 371.831C658.036 359.772 671.471 345.188 677.147 339.646C682.824 334.104 692.732 325.354 698.909 320.133C705.25 314.909 715.83 306.807 722.513 302.237C729.195 297.667 739.471 291.055 745.353 287.819C751.231 284.417 762.675 278.61 770.692 274.841C778.708 271.072 792.793 265.384 801.805 261.928C810.816 258.471 825.246 253.601 833.78 251.143C842.314 248.685 861.864 244.22 877.317 241.312C892.771 238.403 917.117 234.679 931.604 233.107Z" fill="white" stroke="white" stroke-width="1.64915"/>
<path d="M922.106 83.9928C929.812 82.5686 943.445 80.7724 952.481 79.6317C961.523 78.6559 984.091 77.5378 1002.73 77.2171C1022.85 76.8445 1043.17 77.6199 1053.11 78.7579C1062.23 79.9247 1076.02 82.5785 1083.84 84.6154C1091.67 86.6523 1101.36 89.9444 1105.55 91.9431C1109.75 93.9418 1115.48 97.5368 1118.2 99.9169C1120.93 102.462 1125.72 107.245 1128.81 110.767C1131.74 114.296 1135.92 120.42 1137.87 124.477C1139.83 128.534 1141.72 135.234 1141.86 139.519C1142.02 143.969 1141.24 149.937 1140.18 152.779C1138.97 155.792 1135.7 161.352 1132.69 164.922C1129.68 168.493 1123.28 174.491 1118.46 177.96C1113.63 181.594 1103.46 187.89 1095.84 191.951C1088.23 196.177 1077.69 201.331 1072.32 203.664C1066.95 205.831 1055.84 209.024 1047.81 210.625C1039.79 212.39 1020.57 214.877 1005.11 216.407C989.654 217.936 962.352 220.54 944.257 222.162C926.157 223.619 900.68 226.489 887.535 228.103C874.396 229.882 854.875 233.204 844.06 235.397C833.246 237.59 816.721 241.632 807.242 244.273C797.763 246.914 782.114 252.411 772.187 256.388C762.26 260.365 742.622 269.797 728.366 277.39C714.11 284.984 694.076 297.235 683.934 304.519C673.793 311.804 660.788 322.159 655.027 327.311C649.273 332.627 630.611 351.101 613.563 368.527C596.509 385.789 579.574 401.727 576.011 403.667C571.801 405.959 568.033 406.751 564.879 406.201C562.225 405.798 559.001 403.271 556.908 400.044C554.997 397.305 552.818 391.606 552.18 387.503C551.377 383.405 551.396 374.494 551.984 367.708C552.737 360.916 555.135 349.281 557.354 341.943C559.573 334.604 564.268 322.559 567.641 315.181C570.849 307.808 577.51 295.365 582.349 287.44C587.023 279.521 593.281 269.732 596.269 265.502C599.256 261.272 607.152 251.096 613.798 242.943C620.438 234.625 632.538 221.991 640.366 214.622C648.195 207.253 660.54 196.921 667.619 191.724C674.693 186.361 692.255 174.197 706.766 164.449C721.117 154.872 739.197 143.35 746.97 139.118C754.907 134.881 767.891 128.652 775.852 125.073C783.818 121.66 799.939 115.486 811.679 111.446C823.419 107.406 843.178 101.435 855.771 98.1903C868.369 95.1101 885.389 91.0505 893.419 89.45C901.449 87.8494 914.4 85.417 922.106 83.9928Z" fill="white" stroke="white" stroke-width="1.64915"/>
<path d="M946.571 301.448C950.034 299.964 957.967 298.827 965.421 297.999C975.099 296.924 1014.89 294.496 1014.89 294.496V772.128H1004.04H979.776C966.913 772.128 939.034 771.963 939.034 771.963V304.753L946.571 301.448Z" fill="white"/>
<path d="M840.91 321.746C847.342 319.603 858.391 316.799 865.647 315.48C872.903 314.16 883.788 312.892 883.788 312.892V771.963L875.122 772.128H853.94H809.576V338.908L819.471 331.312C824.913 328.343 834.643 324.055 840.91 321.746Z" fill="white"/>
<path d="M720.522 377.488C726.789 373.2 737.344 366.933 743.61 363.635C749.877 360.172 755.281 356.873 755.611 356.873C755.776 356.873 755.611 563.419 755.611 563.419V772.128H733.089H699.227H679.566C676.762 771.304 679.566 415.088 679.566 415.088C679.566 415.088 685.231 407.007 693.641 399.256C702.052 391.505 714.256 381.61 720.522 377.488Z" fill="white"/>
<path d="M946.571 301.448C950.034 299.964 957.967 298.827 965.421 297.999C975.099 296.924 1014.89 294.496 1014.89 294.496V772.128H1004.04H979.776C966.913 772.128 939.034 771.963 939.034 771.963V304.753L946.571 301.448Z" stroke="white" stroke-width="1.64915"/>
<path d="M840.91 321.746C847.342 319.603 858.391 316.799 865.647 315.48C872.903 314.16 883.788 312.892 883.788 312.892V771.963L875.122 772.128H853.94H809.576V338.908L819.471 331.312C824.913 328.343 834.643 324.055 840.91 321.746Z" stroke="white" stroke-width="1.64915"/>
<path d="M720.522 377.488C726.789 373.2 737.344 366.933 743.61 363.635C749.877 360.172 755.281 356.873 755.611 356.873C755.776 356.873 755.611 563.419 755.611 563.419V772.128H733.089H699.227H679.566C676.762 771.304 679.566 415.088 679.566 415.088C679.566 415.088 685.231 407.007 693.641 399.256C702.052 391.505 714.256 381.61 720.522 377.488Z" stroke="white" stroke-width="1.64915"/>
</svg>
